ply
format ascii 1.0
comment Created by Blender 2.90.0 - www.blender.org
element vertex 68
property float x
property float y
property float z
property float nx
property float ny
property float nz
property float s
property float t
property uchar red
property uchar green
property uchar blue
property uchar alpha
element face 17
property list uchar uint vertex_indices
end_header
1.000000 0.000000 -1.000000 0.000000 1.000000 0.000000 0.000000 0.000000 255 122 122 255
-1.000000 0.000000 -1.000000 0.000000 1.000000 0.000000 1.000000 0.000000 255 19 22 255
-1.000000 0.000000 1.000000 0.000000 1.000000 0.000000 1.000000 1.000000 93 255 83 255
1.000000 0.000000 1.000000 0.000000 1.000000 0.000000 0.000000 1.000000 69 255 53 255
1.000000 1.587412 -1.000000 0.000000 1.000000 0.000000 0.000000 0.000000 255 255 255 255
-1.000000 1.587412 -1.000000 0.000000 1.000000 0.000000 1.000000 0.000000 255 255 255 255
-1.000000 1.587412 1.000000 0.000000 1.000000 0.000000 1.000000 1.000000 255 255 255 255
1.000000 1.587412 1.000000 0.000000 1.000000 0.000000 0.000000 1.000000 255 255 255 255
-1.000000 0.000000 -1.000000 0.000000 0.000000 1.000000 1.000000 0.000000 255 19 22 255
1.000000 0.000000 -1.000000 0.000000 0.000000 1.000000 0.000000 0.000000 255 122 122 255
1.000000 1.588891 -1.000000 0.000000 0.000000 1.000000 0.000000 0.000000 255 28 30 255
-1.000000 1.588891 -1.000000 0.000000 0.000000 1.000000 1.000000 0.000000 255 102 103 255
-1.000000 0.000000 1.000000 0.000000 0.000000 1.000000 0.000000 0.000000 93 255 83 255
1.000000 0.000000 1.000000 0.000000 0.000000 1.000000 0.000000 0.000000 69 255 53 255
1.000000 1.588891 1.000000 0.000000 0.000000 1.000000 0.000000 1.000000 65 255 48 255
-1.000000 1.588891 1.000000 0.000000 0.000000 1.000000 1.000000 1.000000 78 255 65 255
-1.000000 1.588891 -1.000000 1.000000 -0.000000 0.000000 0.000000 0.000000 255 255 255 255
-1.000000 1.588891 1.000000 1.000000 -0.000000 0.000000 0.000000 0.000000 255 255 255 255
-1.000000 0.000000 1.000000 1.000000 -0.000000 0.000000 1.000000 1.000000 255 255 255 255
-1.000000 0.000000 -1.000000 1.000000 -0.000000 0.000000 1.000000 0.000000 255 255 255 255
0.152476 0.003499 -0.759412 0.940087 0.000000 -0.340934 0.375000 0.000000 255 251 255 255
0.152476 1.021198 -0.759412 0.940087 0.000000 -0.340934 0.625000 0.000000 255 252 255 255
0.326003 1.021198 -0.280933 0.940087 0.000000 -0.340934 0.625000 0.250000 255 252 255 255
0.326003 0.003499 -0.280933 0.940087 0.000000 -0.340934 0.375000 0.250000 255 255 255 255
0.326003 0.003499 -0.280933 0.340934 0.000000 0.940087 0.375000 0.250000 255 255 255 255
0.326003 1.021198 -0.280933 0.340934 0.000000 0.940087 0.625000 0.250000 255 252 255 255
-0.152476 1.021198 -0.107407 0.340934 0.000000 0.940087 0.625000 0.500000 255 250 255 255
-0.152476 0.003499 -0.107407 0.340934 0.000000 0.940087 0.375000 0.500000 255 250 255 255
-0.152476 0.003499 -0.107407 -0.940087 0.000000 0.340934 0.375000 0.500000 255 250 255 255
-0.152476 1.021198 -0.107407 -0.940087 0.000000 0.340934 0.625000 0.500000 255 250 255 255
-0.326003 1.021198 -0.585885 -0.940087 0.000000 0.340934 0.625000 0.750000 255 251 255 255
-0.326003 0.003499 -0.585885 -0.940087 0.000000 0.340934 0.375000 0.750000 255 250 255 255
-0.326003 0.003499 -0.585885 -0.340934 0.000000 -0.940087 0.375000 0.750000 255 250 255 255
-0.326003 1.021198 -0.585885 -0.340934 0.000000 -0.940087 0.625000 0.750000 255 251 255 255
0.152476 1.021198 -0.759412 -0.340934 0.000000 -0.940087 0.625000 1.000000 255 252 255 255
0.152476 0.003499 -0.759412 -0.340934 0.000000 -0.940087 0.375000 1.000000 255 251 255 255
0.326003 0.003499 -0.280933 0.000000 -1.000000 0.000000 0.125000 0.500000 255 255 255 255
-0.152476 0.003499 -0.107407 0.000000 -1.000000 0.000000 0.375000 0.500000 255 250 255 255
-0.326003 0.003499 -0.585885 0.000000 -1.000000 0.000000 0.375000 0.750000 255 250 255 255
0.152476 0.003499 -0.759412 0.000000 -1.000000 0.000000 0.125000 0.750000 255 251 255 255
-0.152476 1.021198 -0.107407 0.000000 1.000000 -0.000000 0.625000 0.500000 255 250 255 255
0.326003 1.021198 -0.280933 0.000000 1.000000 -0.000000 0.875000 0.500000 255 252 255 255
0.152476 1.021198 -0.759412 0.000000 1.000000 -0.000000 0.875000 0.750000 255 252 255 255
-0.326003 1.021198 -0.585885 0.000000 1.000000 -0.000000 0.625000 0.750000 255 251 255 255
0.033967 -0.013054 0.254462 0.952930 0.000000 0.303191 0.375000 0.000000 255 250 255 255
0.033967 0.559020 0.254462 0.952930 0.000000 0.303191 0.625000 0.000000 255 253 255 255
-0.139481 0.559020 0.799608 0.952930 0.000000 0.303191 0.625000 0.250000 255 255 255 255
-0.139481 -0.013054 0.799608 0.952930 0.000000 0.303191 0.375000 0.250000 255 253 255 255
-0.139481 -0.013054 0.799608 -0.303191 0.000000 0.952930 0.375000 0.250000 255 253 255 255
-0.139481 0.559020 0.799608 -0.303191 0.000000 0.952930 0.625000 0.250000 255 255 255 255
-0.684627 0.559020 0.626161 -0.303191 0.000000 0.952930 0.625000 0.500000 255 250 255 255
-0.684627 -0.013054 0.626161 -0.303191 0.000000 0.952930 0.375000 0.500000 255 250 255 255
-0.684627 -0.013054 0.626161 -0.952930 0.000000 -0.303191 0.375000 0.500000 255 250 255 255
-0.684627 0.559020 0.626161 -0.952930 0.000000 -0.303191 0.625000 0.500000 255 250 255 255
-0.511180 0.559020 0.081014 -0.952930 0.000000 -0.303191 0.625000 0.750000 255 250 255 255
-0.511180 -0.013054 0.081014 -0.952930 0.000000 -0.303191 0.375000 0.750000 255 250 255 255
-0.511180 -0.013054 0.081014 0.303191 0.000000 -0.952930 0.375000 0.750000 255 250 255 255
-0.511180 0.559020 0.081014 0.303191 0.000000 -0.952930 0.625000 0.750000 255 250 255 255
0.033967 0.559020 0.254462 0.303191 0.000000 -0.952930 0.625000 1.000000 255 253 255 255
0.033967 -0.013054 0.254462 0.303191 0.000000 -0.952930 0.375000 1.000000 255 250 255 255
1.000000 0.000000 -1.000000 0.000000 1.000000 0.000000 0.000000 0.000000 255 255 255 255
-1.000000 0.000000 -1.000000 0.000000 1.000000 0.000000 1.000000 0.000000 255 255 255 255
-1.000000 0.000000 1.000000 0.000000 1.000000 0.000000 1.000000 1.000000 255 255 255 255
1.000000 0.000000 1.000000 0.000000 1.000000 0.000000 0.000000 1.000000 255 255 255 255
-0.684627 0.559020 0.626161 0.000000 1.000000 -0.000000 0.625000 0.500000 255 250 255 255
-0.139481 0.559020 0.799608 0.000000 1.000000 -0.000000 0.875000 0.500000 255 255 255 255
0.033967 0.559020 0.254462 0.000000 1.000000 -0.000000 0.875000 0.750000 255 253 255 255
-0.511180 0.559020 0.081014 0.000000 1.000000 -0.000000 0.625000 0.750000 255 250 255 255
4 0 1 2 3
4 4 5 6 7
4 8 9 10 11
4 12 13 14 15
4 16 17 18 19
4 20 21 22 23
4 24 25 26 27
4 28 29 30 31
4 32 33 34 35
4 36 37 38 39
4 40 41 42 43
4 44 45 46 47
4 48 49 50 51
4 52 53 54 55
4 56 57 58 59
4 60 61 62 63
4 64 65 66 67
